<?xml version="1.0" encoding="utf-8"?>
<!-- Generator: Adobe Illustrator 25.3.1, SVG Export Plug-In . SVG Version: 6.00 Build 0)  -->
<svg version="1.1" id="Layer_1" xmlns="http://www.w3.org/2000/svg" xmlns:xlink="http://www.w3.org/1999/xlink" x="0px" y="0px"
	 viewBox="0 0 1000 1000" style="enable-background:new 0 0 1000 1000;" xml:space="preserve">
<style type="text/css">
	.st0{fill:url(#SVGID_1_);}
	.st1{fill:url(#SVGID_2_);}
	.st2{fill:url(#SVGID_3_);}
	.st3{fill:url(#SVGID_4_);}
	.st4{fill:url(#SVGID_5_);}
	.st5{fill:url(#SVGID_6_);}
	.st6{fill:#1A69FF;}
	.st7{opacity:0.5;fill:url(#SVGID_7_);}
	.st8{fill:url(#SVGID_8_);}
	.st9{opacity:0.5;fill:url(#SVGID_9_);}
	.st10{fill:url(#SVGID_10_);}
	.st11{fill:url(#SVGID_11_);}
	.st12{fill:url(#SVGID_12_);}
	.st13{fill:url(#SVGID_13_);}
	.st14{fill:url(#SVGID_14_);}
	.st15{fill:url(#SVGID_15_);}
</style>
<g>
	<linearGradient id="SVGID_1_" gradientUnits="userSpaceOnUse" x1="309.784" y1="520.9077" x2="961.4044" y2="1128.2993">
		<stop  offset="0" style="stop-color:#D222FF"/>
		<stop  offset="0.736" style="stop-color:#F37AEE"/>
		<stop  offset="1" style="stop-color:#FF9BE8"/>
	</linearGradient>
	<path class="st0" d="M945.16,681.2v177.35c0,77.92-60.7,141.08-135.56,141.08c-37.41,0-71.35-15.8-95.85-41.32
		c-24.51-25.51-39.7-60.82-39.7-99.76V681.2c0-58.33-26.56-110.28-67.84-143.5c-14.79-11.93-31.44-21.44-49.5-27.93
		c-17.86-6.45-37-9.96-56.96-9.96h-0.16c-14.75,0.04-29.06,1.93-42.77,5.56c-7.74,2.06-15.24,4.64-22.57,7.74
		c-63.73,27.01-108.79,92.18-108.79,168.08v177.35c0,77.92-60.7,141.08-135.56,141.08c-37.41,0-71.35-15.8-95.85-41.32
		c-24.51-25.51-39.7-60.82-39.7-99.76V681.2c0-56.83,9.88-111.33,28.01-161.72c1.77-5.16,3.71-10.2,5.72-15.24
		c0.56-1.49,1.21-2.94,1.77-4.43c0.24-0.56,0.48-1.17,0.73-1.73c31.92-76.91,83.28-143.13,147.61-191.83
		c26.97-20.48,56.23-37.85,87.27-51.63c2.78-1.25,5.56-2.42,8.38-3.63c6.01-2.5,12.05-4.88,18.18-7.09
		c46.27-17.01,95.97-26.24,147.73-26.24c61.83,0,120.72,13.18,174.29,36.96c6.45,2.86,12.86,5.93,19.19,9.11
		c14.27,7.17,28.13,15.16,41.52,23.86c68.28,44.26,124.23,107.26,161.23,182.03c4.92,9.84,9.43,19.91,13.66,30.19
		c3.59,8.83,6.97,17.82,10.04,26.93c1.65,4.88,3.22,9.75,4.72,14.71c5,16.2,9.11,32.81,12.29,49.78c3.14,16.57,5.44,33.5,6.85,50.63
		C944.64,654.8,945.16,667.94,945.16,681.2z"/>
	<linearGradient id="SVGID_2_" gradientUnits="userSpaceOnUse" x1="238.1994" y1="287.8589" x2="325.5469" y2="287.8589">
		<stop  offset="0" style="stop-color:#1AEDE8"/>
		<stop  offset="1" style="stop-color:#1AD3FF"/>
	</linearGradient>
	<path class="st1" d="M325.47,315.21c0,1.98,0.04,3.95,0.08,5.88c-29.55-6.89-58.73-11.81-87.35-14.83
		c26.97-20.48,56.23-37.85,87.27-51.63V315.21z"/>
	<linearGradient id="SVGID_3_" gradientUnits="userSpaceOnUse" x1="783.6986" y1="547.4438" x2="731.2784" y2="606.0911">
		<stop  offset="0" style="stop-color:#D222FF"/>
		<stop  offset="0.736" style="stop-color:#F37AEE"/>
		<stop  offset="1" style="stop-color:#FF9BE8"/>
	</linearGradient>
	<path class="st2" d="M945.16,681.2V782.3c-31.2-52.84-69.45-104.76-114.27-154.22c-36.16-39.82-76.5-78-120.88-113.75
		c-29.3-23.62-59.29-45.31-89.72-65.02c33.13-33.01,53.77-79.49,53.77-130.88v-63.81c6.45,2.86,12.86,5.93,19.19,9.11
		c14.27,7.17,28.13,15.16,41.52,23.86c68.28,44.26,124.23,107.26,161.23,182.03c4.92,9.84,9.43,19.91,13.66,30.19
		c3.59,8.83,6.97,17.82,10.04,26.93c1.65,4.88,3.22,9.75,4.72,14.71c5,16.2,9.11,32.81,12.29,49.78c3.14,16.57,5.44,33.5,6.85,50.63
		C944.64,654.8,945.16,667.94,945.16,681.2z"/>
	<linearGradient id="SVGID_4_" gradientUnits="userSpaceOnUse" x1="233" y1="492.7038" x2="945.1601" y2="492.7038">
		<stop  offset="0" style="stop-color:#FF9BE8"/>
		<stop  offset="0.264" style="stop-color:#F37AEE"/>
		<stop  offset="1" style="stop-color:#D222FF"/>
	</linearGradient>
	<path class="st3" d="M945.16,681.2v86.54c-23.46-47.08-53.49-93.84-89.64-138.7c-4.11-5.16-8.34-10.28-12.66-15.4
		c-36.08-42.81-77.79-83.76-124.67-121.53C561.55,365.87,382.34,303.6,233,310.21c28.38-22.17,59.41-40.91,92.47-55.58
		c2.78-1.25,5.56-2.42,8.38-3.63c6.01-2.5,12.05-4.88,18.18-7.09c46.27-17.01,95.97-26.24,147.73-26.24
		c61.83,0,120.72,13.18,174.29,36.96c6.45,2.86,12.86,5.93,19.19,9.11c14.27,7.17,28.13,15.16,41.52,23.86
		c68.28,44.26,124.23,107.26,161.23,182.03c4.92,9.84,9.43,19.91,13.66,30.19c2.26,5.48,4.39,11.04,6.41,16.69
		c3.02,8.18,5.8,16.53,8.34,24.95c5,16.2,9.11,32.81,12.29,49.78c3.14,16.57,5.44,33.5,6.85,50.63
		C944.64,654.8,945.16,667.94,945.16,681.2z"/>
	<linearGradient id="SVGID_5_" gradientUnits="userSpaceOnUse" x1="54.3551" y1="390.9904" x2="945.1601" y2="390.9904">
		<stop  offset="0" style="stop-color:#1A69FF"/>
		<stop  offset="0.4014" style="stop-color:#7361FF"/>
		<stop  offset="1" style="stop-color:#FF54FF"/>
	</linearGradient>
	<path class="st4" d="M945.16,141.08v177.35c0,6.77-0.12,13.54-0.44,20.27c-1.85,45.63-10.12,89.56-23.86,130.88
		c-3.43,10.24-7.13,20.36-11.21,30.23c-19.43,47.28-46.15,90.57-78.76,128.26c-43.17,49.98-96.62,90.17-156.84,116.93
		c-54.29,24.14-114.15,37.33-176.87,36.96c-49.58-0.28-97.14-9.11-141.52-25.15c-10.24-3.71-20.32-7.78-30.19-12.21
		c-99.36-44.58-179.93-126.12-226.69-227.62c-2.58-5.6-5.08-11.29-7.42-17.05c-0.28-0.6-0.52-1.25-0.77-1.85
		c-3.22-7.86-6.25-15.84-9.03-23.94c-1.53-4.35-2.98-8.75-4.39-13.14c-3.34-10.48-6.33-21.12-8.91-31.88
		c-1.25-4.92-2.38-9.88-3.43-14.87c-6.89-32.57-10.48-66.35-10.48-100.93V141.08C54.36,63.16,115.06,0,189.91,0
		c0.69,0,1.41,0,2.06,0.04c2.86,0.04,5.68,0.16,8.46,0.4c33.21,2.66,63.12,17.78,85.33,40.87c12.74,13.26,22.98,29.18,29.87,46.88
		c0.08,0.2,0.16,0.4,0.2,0.6c1.57,4.15,2.98,8.34,4.19,12.66c1.17,4.07,2.14,8.26,2.9,12.5c1.69,8.79,2.54,17.86,2.54,27.13v174.13
		c0,1.98,0.04,3.95,0.08,5.88c1.29,42.08,16.32,81.06,40.47,111.81c30.15,38.21,74.45,63.69,124.23,66.63
		c3.1,0.2,6.21,0.28,9.35,0.28h0.16c1.05,0,2.02,0,3.02-0.04c8.55-0.16,16.93-0.97,25.15-2.34c35.55-6.05,67.48-23.3,92.35-48.13
		c33.13-33.01,53.77-79.49,53.77-130.88V141.08C674.05,63.16,734.75,0,809.6,0c3.95,0,7.86,0.16,11.69,0.52
		c32.77,2.9,62.24,17.98,84.16,40.79C929.96,66.83,945.16,102.14,945.16,141.08z"/>
	<g>
		<linearGradient id="SVGID_6_" gradientUnits="userSpaceOnUse" x1="741.1563" y1="590.0899" x2="868.166" y2="709.9105">
			<stop  offset="0" style="stop-color:#4000FF"/>
			<stop  offset="0.4779" style="stop-color:#9927FF"/>
			<stop  offset="1" style="stop-color:#FF54FF"/>
		</linearGradient>
		<path class="st5" d="M916.06,516.51c-16.45,41.32-36.92,79.08-60.54,112.54c-44.82,63.69-100.97,111.73-162.28,138.98
			c-6.33,2.82-12.74,5.48-19.19,7.98v-31c65.9-29.26,123.7-74.65,168.81-131.36c27.25-34.18,49.82-72.47,66.79-113.83
			C911.91,505.3,914.04,510.86,916.06,516.51z"/>
	</g>
	<g>
		<path class="st6" d="M189.91,0c0.69,0,1.41,0,2.06,0.04C115.74,1.21,54.36,65.82,54.36,145.43v-4.35
			C54.36,63.16,115.06,0,189.91,0z"/>
	</g>
	<linearGradient id="SVGID_7_" gradientUnits="userSpaceOnUse" x1="396.177" y1="259.0733" x2="972.4227" y2="259.0733">
		<stop  offset="0" style="stop-color:#1A69FF"/>
		<stop  offset="0.951" style="stop-color:#1A11B3"/>
		<stop  offset="1" style="stop-color:#1A0CAF"/>
	</linearGradient>
	<path class="st7" d="M945.16,141.08v177.35c0,23.26-1.65,46.19-4.88,68.52C800.94,502.4,632.94,546.45,498.91,499.82h0.85
		c1.05,0,2.02,0,3.02-0.04c1.93-0.04,3.87-0.12,5.8-0.2c92.02-4.8,165.46-84.2,165.46-181.14V141.08C674.05,63.16,734.75,0,809.6,0
		c3.95,0,7.86,0.16,11.69,0.52c32.77,2.9,62.24,17.98,84.16,40.79c15.88,16.53,27.85,37.2,34.34,60.3
		C943.31,114.11,945.16,127.37,945.16,141.08z"/>
	<linearGradient id="SVGID_8_" gradientUnits="userSpaceOnUse" x1="685.7947" y1="455.0457" x2="900.5286" y2="12.4309">
		<stop  offset="0" style="stop-color:#1A0CAF"/>
		<stop  offset="0.049" style="stop-color:#1A11B3"/>
		<stop  offset="1" style="stop-color:#1A69FF"/>
	</linearGradient>
	<path class="st8" d="M945.16,160.47v131.81c-126.97,136.6-287.27,213.55-437.18,207.46c0.2-0.04,0.4-0.12,0.6-0.16
		c92.02-4.8,165.46-84.2,165.46-181.14V141.08C674.05,63.16,734.75,0,809.6,0c3.95,0,7.86,0.16,11.69,0.52
		c32.77,2.9,62.24,17.98,84.16,40.79c15.88,16.53,27.85,37.2,34.34,60.3L945.16,160.47z"/>
	<linearGradient id="SVGID_9_" gradientUnits="userSpaceOnUse" x1="85.876" y1="149.8777" x2="221.1103" y2="298.9721">
		<stop  offset="0" style="stop-color:#1A0CAF"/>
		<stop  offset="0.049" style="stop-color:#1A11B3;stop-opacity:0.951"/>
		<stop  offset="1" style="stop-color:#1A69FF;stop-opacity:0"/>
	</linearGradient>
	<path class="st9" d="M320.02,101.45C199.62,160.51,107.76,301.5,81.56,474.14c-1.53-4.35-2.98-8.75-4.39-13.14
		c-3.34-10.48-6.33-21.12-8.91-31.88c-1.25-4.92-2.38-9.88-3.43-14.87c-6.89-32.57-10.48-66.35-10.48-100.93V141.08
		C54.36,63.16,115.06,0,189.91,0c0.69,0,1.41,0,2.06,0.04c2.86,0.04,5.68,0.16,8.46,0.4c33.21,2.66,63.12,17.78,85.33,40.87
		c12.74,13.26,22.98,29.18,29.87,46.88c0.08,0.2,0.16,0.4,0.2,0.6C317.4,92.95,318.82,97.14,320.02,101.45z"/>
	<linearGradient id="SVGID_10_" gradientUnits="userSpaceOnUse" x1="54.3551" y1="200.673" x2="315.0664" y2="200.673">
		<stop  offset="0" style="stop-color:#1A69FF"/>
		<stop  offset="0.951" style="stop-color:#1A11B3"/>
		<stop  offset="1" style="stop-color:#1A0CAF"/>
	</linearGradient>
	<path class="st10" d="M315.07,86.82C197.77,83.64,87.53,212.46,64.27,384.7c-0.77,5.56-1.41,11.12-1.98,16.65
		c-5.24-28.58-7.94-58-7.94-88.03V141.08C54.36,63.16,115.06,0,189.91,0c0.69,0,1.41,0,2.06,0.04c36.6,0.56,69.73,16.24,93.8,41.28
		C298.18,54.21,308.21,69.65,315.07,86.82z"/>
	<linearGradient id="SVGID_11_" gradientUnits="userSpaceOnUse" x1="98.779" y1="487.2392" x2="672.9609" y2="487.2392">
		<stop  offset="0" style="stop-color:#1A69FF"/>
		<stop  offset="0.951" style="stop-color:#1A11B3"/>
		<stop  offset="1" style="stop-color:#1A0CAF"/>
	</linearGradient>
	<path class="st11" d="M497.51,217.66c62.2-0.32,121.54,12.7,175.45,36.48L502.04,496.55c-3.99,0.85-7.94,1.85-11.81,2.98
		c-0.74,0.2-1.47,0.44-2.21,0.69c-75.68,23.06-131.26,94.72-131.84,179.69l-0.54,76.91c-10.22-3.71-20.29-7.78-30.17-12.21
		c-99.34-44.58-179.94-126.12-226.69-227.62c37.14-103.23,107.13-190.29,196.95-247.17c9.68-6.13,19.6-11.93,29.74-17.33v2.58
		C378.26,231.29,436.39,217.99,497.51,217.66z"/>
	<linearGradient id="SVGID_12_" gradientUnits="userSpaceOnUse" x1="250.5946" y1="364.6669" x2="548.6363" y2="918.5277">
		<stop  offset="0" style="stop-color:#FF54FF"/>
		<stop  offset="0.5986" style="stop-color:#7342FF"/>
		<stop  offset="1" style="stop-color:#1A36FF"/>
	</linearGradient>
	<path class="st12" d="M674.05,257.85v60.58c0,45.14-15.92,86.46-42.2,118.22c-31.4,37.89-77.55,62.2-129.07,63.12
		c-1.01,0.04-1.98,0.04-3.02,0.04h-0.16c-3.87,0-7.74,0.12-11.57,0.4c-90.65,6.29-162.56,85.09-162.56,180.98v177.35
		c0,8.26-0.68,16.41-1.98,24.27c-2.02,12.05-5.48,23.54-10.24,34.34c-20.03,45.55-62.64,78.12-112.98,82.07
		c-3.43,0.28-6.85,0.4-10.36,0.4c-37.41,0-71.35-15.8-95.85-41.32c-24.51-25.51-39.7-60.82-39.7-99.76V686.56
		c0-34.54,3.59-68.32,10.48-100.81c2.86-13.7,6.29-27.17,10.32-40.39c4.64-15.52,10.04-30.67,16.2-45.43
		c31.04-75.09,80.33-140.23,142.09-188.92c19.55-15.48,40.39-29.26,62.28-41.19c9.67-5.28,19.59-10.24,29.75-14.75
		c52.8-23.78,110.93-37.08,172.03-37.41c62.2-0.32,121.53,12.7,175.46,36.48L674.05,257.85z"/>
	<linearGradient id="SVGID_13_" gradientUnits="userSpaceOnUse" x1="110.1479" y1="834.5411" x2="203.4181" y2="725.0865">
		<stop  offset="0" style="stop-color:#FF04FF"/>
		<stop  offset="1" style="stop-color:#D421FF;stop-opacity:0"/>
	</linearGradient>
	<path class="st13" d="M323.49,882.82c-2.02,12.05-5.48,23.54-10.24,34.34c-20.03,45.55-62.64,78.12-112.98,82.07
		c-38.9-2.86-73.96-20.48-99.88-47.48c-28.42-29.59-46.03-70.5-46.03-115.6V686.56c0-34.54,3.59-68.32,10.48-100.81
		c2.86-13.7,6.29-27.17,10.32-40.39c14.51,40.23,33.05,80.29,55.67,119.47C182.9,755.05,249.97,828.97,323.49,882.82z"/>
	<linearGradient id="SVGID_14_" gradientUnits="userSpaceOnUse" x1="42.412" y1="906.7142" x2="211.3623" y2="737.7638">
		<stop  offset="0" style="stop-color:#FF9BE8"/>
		<stop  offset="0.264" style="stop-color:#F37AEE"/>
		<stop  offset="1" style="stop-color:#D222FF"/>
	</linearGradient>
	<path class="st14" d="M307.65,928.53c-23.38,42.48-67.35,71.1-117.74,71.1c-37.41,0-71.35-15.8-95.85-41.32
		c-24.51-25.51-39.7-60.82-39.7-99.76V686.56c0-32.97,3.31-65.18,9.51-96.3c9.47,52,28.74,105.32,58.25,156.43
		C170.08,829.78,236.67,892.46,307.65,928.53z"/>
	<linearGradient id="SVGID_15_" gradientUnits="userSpaceOnUse" x1="233.4429" y1="327.1562" x2="674.049" y2="327.1562">
		<stop  offset="0" style="stop-color:#FF54FF"/>
		<stop  offset="0.5221" style="stop-color:#9927FF"/>
		<stop  offset="1" style="stop-color:#4000FF"/>
	</linearGradient>
	<path class="st15" d="M674.05,257.85v60.58c0,45.14-15.92,86.46-42.2,118.22c-121.81-94.8-269.3-137.93-398.4-125.64
		c19.55-15.48,40.39-29.26,62.28-41.19c9.67-5.28,19.59-10.24,29.75-14.75c52.8-23.78,110.93-37.08,172.03-37.41
		c62.2-0.32,121.53,12.7,175.46,36.48L674.05,257.85z"/>
</g>
</svg>
